<?xml version="1.0" encoding="UTF-8"?>
<svg id="Layer_1" data-name="Layer 1" xmlns="http://www.w3.org/2000/svg" xmlns:xlink="http://www.w3.org/1999/xlink" viewBox="0 0 610 288">
  <defs>
    <style>
      .cls-1 {
        letter-spacing: -.02em;
      }

      .cls-2 {
        fill: #00aeef;
      }

      .cls-3 {
        fill: #fff;
      }

      .cls-4 {
        fill: #be1f24;
      }

      .cls-5, .cls-6 {
        fill: none;
      }

      .cls-7 {
        clip-path: url(#clippath-1);
      }

      .cls-8 {
        fill: #231f20;
      }

      .cls-9 {
        font-family: Roboto-Medium, Roboto;
        font-size: 49px;
        font-weight: 500;
      }

      .cls-6 {
        stroke: #231f20;
        stroke-miterlimit: 10;
        stroke-width: 4.51px;
      }

      .cls-10 {
        clip-path: url(#clippath);
      }

      .cls-11 {
        fill: #f8cb10;
      }
    </style>
    <clipPath id="clippath">
      <polygon class="cls-5" points="206.74 17.72 30.86 17.72 30.86 90.41 206.74 90.41 206.74 17.72 206.74 17.72"/>
    </clipPath>
    <clipPath id="clippath-1">
      <polygon class="cls-5" points="206.74 17.72 30.86 17.72 30.86 90.41 206.74 90.41 206.74 17.72 206.74 17.72"/>
    </clipPath>
  </defs>
  <text class="cls-9" transform="translate(246.64 225.71) scale(.58)"><tspan class="cls-1" x="0" y="0">V</tspan><tspan x="30.6" y="0">oted #1 - Best Credit Union</tspan></text>
  <g>
    <g>
      <path d="M378.23,96.91l7.83-26.34h12.13l-17.03,48.93-.94,2.23c-2.53,5.53-6.71,8.3-12.53,8.3-1.64,0-3.31-.25-5.01-.74v-8.57l1.72.04c2.14,0,3.74-.33,4.79-.98,1.06-.65,1.89-1.74,2.49-3.25l1.33-3.48-14.83-42.47h12.17l7.87,26.34Z"/>
      <path d="M422.14,113.7c-6.21,0-11.27-1.9-15.17-5.71-3.9-3.81-5.85-8.89-5.85-15.23v-1.1c0-4.25.82-8.06,2.46-11.41,1.64-3.35,3.97-5.94,6.99-7.75s6.45-2.72,10.31-2.72c5.79,0,10.35,1.83,13.68,5.48,3.33,3.65,4.99,8.83,4.99,15.54v4.62h-26.97c.37,2.77,1.47,4.98,3.31,6.65,1.84,1.67,4.17,2.51,6.99,2.51,4.36,0,7.76-1.58,10.22-4.74l5.56,6.22c-1.7,2.4-3.99,4.27-6.89,5.62-2.9,1.34-6.11,2.02-9.63,2.02ZM420.85,78.9c-2.24,0-4.07.76-5.46,2.28-1.4,1.52-2.29,3.7-2.68,6.53h15.74v-.9c-.05-2.52-.73-4.46-2.04-5.84s-3.16-2.06-5.56-2.06Z"/>
      <path d="M470.52,112.91c-.52-1.02-.9-2.28-1.14-3.8-2.74,3.05-6.3,4.58-10.69,4.58-4.15,0-7.59-1.2-10.31-3.6-2.73-2.4-4.09-5.43-4.09-9.08,0-4.49,1.66-7.93,4.99-10.33,3.33-2.4,8.13-3.61,14.42-3.64h5.21v-2.43c0-1.96-.5-3.52-1.51-4.7-1.01-1.17-2.59-1.76-4.76-1.76-1.9,0-3.4.46-4.48,1.37-1.08.91-1.62,2.17-1.62,3.76h-11.31c0-2.45.76-4.72,2.27-6.81,1.51-2.09,3.65-3.72,6.42-4.91,2.77-1.19,5.87-1.78,9.32-1.78,5.22,0,9.36,1.31,12.43,3.93,3.07,2.62,4.6,6.31,4.6,11.06v18.36c.03,4.02.59,7.06,1.68,9.12v.67h-11.43ZM461.17,105.05c1.67,0,3.21-.37,4.62-1.12,1.41-.74,2.45-1.74,3.13-2.99v-7.28h-4.23c-5.66,0-8.68,1.96-9.04,5.87l-.04.67c0,1.41.5,2.57,1.49,3.48.99.91,2.35,1.37,4.07,1.37Z"/>
      <path d="M512.76,81.17c-1.54-.21-2.9-.31-4.07-.31-4.28,0-7.08,1.45-8.42,4.34v27.71h-11.31v-42.35h10.69l.31,5.05c2.27-3.89,5.41-5.83,9.43-5.83,1.25,0,2.43.17,3.52.51l-.16,10.88Z"/>
      <path d="M541.14,101.21c0-1.38-.68-2.47-2.05-3.27s-3.57-1.51-6.6-2.13c-10.07-2.11-15.11-6.39-15.11-12.84,0-3.76,1.56-6.89,4.68-9.41,3.12-2.52,7.2-3.78,12.23-3.78,5.37,0,9.67,1.27,12.9,3.8,3.22,2.53,4.83,5.82,4.83,9.86h-11.31c0-1.62-.52-2.96-1.57-4.01-1.04-1.06-2.68-1.59-4.89-1.59-1.9,0-3.38.43-4.42,1.29-1.04.86-1.57,1.96-1.57,3.29,0,1.25.59,2.26,1.78,3.03,1.19.77,3.19,1.44,6.01,2,2.82.56,5.19,1.19,7.12,1.9,5.97,2.19,8.96,5.99,8.96,11.39,0,3.86-1.66,6.99-4.97,9.37-3.31,2.39-7.59,3.58-12.84,3.58-3.55,0-6.7-.63-9.45-1.9s-4.91-3-6.48-5.21c-1.57-2.21-2.35-4.59-2.35-7.14h10.72c.1,2.01.85,3.55,2.23,4.62,1.38,1.07,3.24,1.61,5.56,1.61,2.16,0,3.8-.41,4.91-1.23s1.66-1.9,1.66-3.23Z"/>
      <path d="M360.84,149.29c0-1.1.37-2.01,1.11-2.72.74-.71,1.74-1.07,3.02-1.07s2.26.36,3,1.07c.75.71,1.12,1.62,1.12,2.72s-.38,2.04-1.13,2.75c-.75.71-1.75,1.07-2.99,1.07s-2.23-.36-2.99-1.07c-.75-.71-1.13-1.63-1.13-2.75ZM368.65,183.94h-7.38v-27.53h7.38v27.53Z"/>
      <path d="M381.48,156.41l.23,3.18c1.97-2.46,4.61-3.69,7.91-3.69,2.92,0,5.09.86,6.51,2.57,1.42,1.71,2.15,4.27,2.19,7.68v17.78h-7.35v-17.61c0-1.56-.34-2.69-1.02-3.4-.68-.7-1.81-1.06-3.38-1.06-2.07,0-3.62.88-4.66,2.65v19.41h-7.35v-27.53h6.92Z"/>
      <path d="M432.82,183.94c-.34-.66-.59-1.48-.74-2.47-1.78,1.98-4.1,2.98-6.95,2.98-2.7,0-4.93-.78-6.7-2.34-1.77-1.56-2.66-3.53-2.66-5.9,0-2.92,1.08-5.16,3.24-6.72,2.16-1.56,5.29-2.35,9.38-2.37h3.38v-1.58c0-1.27-.33-2.29-.98-3.05s-1.68-1.15-3.09-1.15c-1.24,0-2.21.3-2.91.89-.7.59-1.06,1.41-1.06,2.44h-7.35c0-1.59.49-3.07,1.48-4.43s2.37-2.42,4.17-3.19,3.82-1.16,6.06-1.16c3.39,0,6.08.85,8.08,2.56,1.99,1.71,2.99,4.1,2.99,7.19v11.93c.02,2.61.38,4.59,1.09,5.93v.43h-7.43ZM426.74,178.83c1.09,0,2.09-.24,3-.72s1.59-1.13,2.03-1.95v-4.73h-2.75c-3.68,0-5.64,1.27-5.88,3.82l-.03.43c0,.92.32,1.67.97,2.26.64.59,1.53.89,2.65.89Z"/>
      <path d="M473.25,163.31c-1-.14-1.88-.2-2.65-.2-2.78,0-4.6.94-5.47,2.82v18.01h-7.35v-27.53h6.95l.2,3.28c1.48-2.53,3.52-3.79,6.13-3.79.81,0,1.58.11,2.29.33l-.1,7.07Z"/>
      <path d="M474.72,169.92c0-2.73.53-5.16,1.58-7.3,1.05-2.14,2.57-3.79,4.54-4.96s4.27-1.76,6.88-1.76c3.71,0,6.75,1.14,9.09,3.41s3.66,5.36,3.93,9.26l.05,1.88c0,4.22-1.18,7.61-3.54,10.16-2.36,2.55-5.52,3.83-9.49,3.83s-7.14-1.27-9.5-3.82c-2.37-2.54-3.55-6-3.55-10.38v-.33ZM482.08,170.44c0,2.62.49,4.62,1.47,6,.98,1.39,2.39,2.08,4.22,2.08s3.17-.68,4.17-2.05c1-1.37,1.5-3.55,1.5-6.56,0-2.56-.5-4.55-1.5-5.96-1-1.41-2.41-2.11-4.22-2.11s-3.19.7-4.17,2.1-1.47,3.57-1.47,6.51Z"/>
      <path d="M529.27,173.94l3.61-17.53h7.1l-7.02,27.53h-6.16l-5.21-17.33-5.22,17.33h-6.13l-7.02-27.53h7.1l3.59,17.5,5.04-17.5h5.32l5.01,17.53Z"/>
      <path d="M548.05,176.59c1.24,0,2.23.36,2.99,1.09.75.73,1.13,1.66,1.13,2.8s-.38,2.04-1.13,2.77c-.76.73-1.75,1.09-2.99,1.09s-2.21-.36-2.96-1.09-1.13-1.65-1.13-2.77.38-2.05,1.13-2.79,1.74-1.11,2.96-1.11ZM551.1,172.57h-6.11l-.86-25.67h7.84l-.86,25.67Z"/>
    </g>
    <path d="M331.45,77.09c0,2.14-.07,3.56-.19,4.28,0,.39-1.33,2.3-3.99,5.74-8.68,11.66-16.23,27.02-22.65,46.07-6.22,18.41-10.27,34.31-12.15,47.73-.19,1.56-.42,2.59-.68,3.11-.45.91-1.3,1.52-2.53,1.85-1.82.52-5.64.78-11.47.78s-9.75-.26-11.18-.78c-.78-.26-1.17-1.04-1.17-2.33,0-8.03,3.27-19.99,9.82-35.87,4.34-10.5,10.43-23.42,18.27-38.78,6.54-12.83,9.82-19.44,9.82-19.83,0-.97-.84-1.46-2.53-1.46-5.57,0-13.97.45-25.18,1.36-11.21.91-19.6,1.36-25.17,1.36-1.75,0-2.62-.58-2.62-1.75,0-1.23.19-2.85.58-4.86.52-2.66.81-4.31.87-4.96.13-1.17.19-4.73.19-10.69,0-1.36.91-2.04,2.72-2.04,4.34,0,11.73.42,22.16,1.26,6.74.52,24.53.78,53.36.78,2.46,0,3.69,3.01,3.69,9.04Z"/>
  </g>
  <g>
    <path class="cls-3" d="M226.84,147.8v-21.81h-11.7V7.49H22.46v120.26c-7.26,4.08-11.7,12.5-11.7,23.47,0,11.8,4.15,20.24,11.7,24.63v106.48h192.69v-103.99h11.7v-22.49h-11.7v-8.04h11.7Z"/>
    <polygon class="cls-2" points="24.5 279.99 24.5 9.82 213.11 9.82 213.11 279.99 24.5 279.99 24.5 279.99"/>
    <path class="cls-8" d="M30.75,17.71h176.11v69.24H30.75V17.71h0ZM225.24,146.16v-18.53h-16.21V15.29H28.57v111.89c-9.86,2.15-16.21,11.27-16.21,24.04,0,13.84,5.69,22.63,16.21,25.45v65.29h180.45v-65.26h16.21v-19.21h-12.35v-11.33h12.35Z"/>
    <path class="cls-3" d="M55,146.6h-10.43c0-2.71-.62-5.16-1.94-6.99-1.31-1.76-3.25-2.85-5.99-2.85-7.87,0-9.55,9.09-9.55,16.01s2,14.79,9.62,14.79c2.12,0,3.87-1.02,5.18-2.51,1.25-1.56,2-3.66,2.06-5.83h11.74c-.56,11.6-9.3,16.08-19.05,16.08-14.55,0-21.98-8.62-21.98-24.09,0-12.28,6.43-22.19,18.55-22.19,4.43,0,9.3.88,12.05,5.16h.12v-4.21h9.62v16.62h0Z"/>
    <polygon class="cls-3" points="57.26 169.36 60.32 169.36 60.32 148.53 57.26 148.53 57.26 142.95 72.91 142.95 72.91 148.53 69.32 148.53 69.32 155.82 80.62 155.82 80.62 148.53 77.03 148.53 77.03 142.95 92.58 142.95 92.58 148.53 89.62 148.53 89.62 169.36 92.58 169.36 92.58 174.94 77.03 174.94 77.03 169.36 80.62 169.36 80.62 161.68 69.32 161.68 69.32 169.36 72.91 169.36 72.91 174.94 57.26 174.94 57.26 169.36 57.26 169.36"/>
    <path class="cls-3" d="M119.11,158.94c0-4.89-1.34-11.1-7.47-11.1s-7.47,6.21-7.47,11.1,1.34,11.1,7.47,11.1,7.47-6.21,7.47-11.1h0ZM94.65,158.94c0-10.37,6.46-16.68,16.99-16.68s16.99,6.31,16.99,16.68-6.46,16.68-16.99,16.68-16.99-6.31-16.99-16.68h0Z"/>
    <polygon class="cls-3" points="130.98 169.36 134.52 169.36 134.52 148.53 130.98 148.53 130.98 142.95 147.11 142.95 147.11 148.53 143.52 148.53 143.52 169.36 147.11 169.36 147.11 174.94 130.98 174.94 130.98 169.36 130.98 169.36"/>
    <path class="cls-3" d="M180.38,154.93h-7.99c0-1.96-.48-3.72-1.48-5.04-1.01-1.27-2.49-2.05-4.59-2.05-6.03,0-7.32,6.55-7.32,11.54s1.53,10.66,7.37,10.66c1.63,0,2.97-.73,3.97-1.81.96-1.12,1.53-2.64,1.58-4.21h9c-.43,8.36-7.13,11.59-14.6,11.59-11.15,0-16.85-6.21-16.85-17.36,0-8.85,4.93-15.99,14.22-15.99,3.4,0,7.13.64,9.24,3.72h.1v-3.03h7.37v11.98h0Z"/>
    <polygon class="cls-3" points="182.23 166.62 186.48 166.62 186.48 137.71 182.23 137.71 182.23 129.98 222.94 129.98 222.94 143.82 213.38 143.82 213.38 137.71 198.97 137.71 198.97 148.16 203.02 148.16 203.02 143.68 210.59 143.68 210.59 160.1 203.02 160.1 203.02 155.49 198.97 155.49 198.97 166.62 213.38 166.62 213.38 159.83 222.94 159.83 222.94 174.35 182.23 174.35 182.23 166.62 182.23 166.62"/>
    <path class="cls-2" d="M16.92,151.21c0-12,6.02-20.02,15.5-21-10.12.4-16.61,8.55-16.61,21,0,14.38,6.63,22.25,19.2,22.87-11.85-1.05-18.09-8.9-18.09-22.87h0Z"/>
    <polygon class="cls-2" points="46.53 135.27 47.64 135.27 47.64 131.15 46.53 131.15 46.53 135.27 46.53 135.27"/>
    <path class="cls-2" d="M42.74,165.84c-1.4,1.59-3.09,2.54-4.95,2.81.04,0,.07,0,.11,0,2.26,0,4.33-.99,5.98-2.87,1.18-1.48,1.98-3.39,2.24-5.39h-1.11c-.26,2.01-1.05,3.93-2.26,5.45h0Z"/>
    <path class="cls-2" d="M37.94,135.68c2.34.29,4.22,1.37,5.62,3.24,1.23,1.71,1.95,3.95,2.12,6.51h1.11c-.17-2.54-.89-4.77-2.1-6.46-1.6-2.16-3.88-3.26-6.75-3.29h0Z"/>
    <polygon class="cls-2" points="81.77 170.45 82.88 170.45 82.88 160.59 81.77 160.59 81.77 170.45 81.77 170.45"/>
    <polygon class="cls-2" points="78.18 173.77 79.29 173.77 79.29 170.53 78.18 170.53 78.18 173.77 78.18 173.77"/>
    <polygon class="cls-2" points="78.18 147.36 79.29 147.36 79.29 144.12 78.18 144.12 78.18 147.36 78.18 147.36"/>
    <polygon class="cls-2" points="58.41 173.77 59.52 173.77 59.52 170.53 58.41 170.53 58.41 173.77 58.41 173.77"/>
    <polygon class="cls-2" points="81.77 156.91 82.88 156.91 82.88 147.44 81.77 147.44 81.77 156.91 81.77 156.91"/>
    <polygon class="cls-2" points="61.47 170.45 62.58 170.45 62.58 147.44 61.47 147.44 61.47 170.45 61.47 170.45"/>
    <polygon class="cls-2" points="58.41 147.36 59.52 147.36 59.52 144.12 58.41 144.12 58.41 147.36 58.41 147.36"/>
    <path class="cls-2" d="M112.83,146.75s0,0-.01,0c4.74.61,7.43,4.97,7.43,12.19s-2.69,11.58-7.43,12.19c0,0,0,0,.01,0,5.42,0,8.53-4.44,8.53-12.19s-3.11-12.19-8.53-12.19h0Z"/>
    <path class="cls-2" d="M110.55,143.48c-9.26.42-14.76,6.12-14.76,15.46s5.5,15.05,14.76,15.46c-8.58-.84-13.64-6.48-13.64-15.46s5.06-14.62,13.64-15.46h0Z"/>
    <polygon class="cls-2" points="135.67 170.45 136.78 170.45 136.78 147.44 135.67 147.44 135.67 170.45 135.67 170.45"/>
    <polygon class="cls-2" points="132.13 173.77 133.24 173.77 133.24 170.53 132.13 170.53 132.13 173.77 132.13 173.77"/>
    <polygon class="cls-2" points="132.13 147.36 133.24 147.36 133.24 144.12 132.13 144.12 132.13 147.36 132.13 147.36"/>
    <polygon class="cls-2" points="174.15 147.08 175.27 147.08 175.27 144.12 174.15 144.12 174.15 147.08 174.15 147.08"/>
    <path class="cls-2" d="M171.16,169.05c-1.07,1.15-2.37,1.85-3.78,2.08.06,0,.11,0,.17,0,1.79,0,3.43-.74,4.74-2.15.91-1.07,1.52-2.38,1.76-3.79h-1.11c-.24,1.42-.85,2.75-1.78,3.84h0Z"/>
    <path class="cls-2" d="M167.5,146.75s-.03,0-.04,0c1.79.24,3.25,1.04,4.34,2.42.93,1.22,1.5,2.79,1.67,4.58h1.11c-.17-1.77-.74-3.34-1.65-4.53-1.3-1.64-3.13-2.48-5.44-2.48h0Z"/>
    <path class="cls-2" d="M151.72,158.26c0-8.38,4.43-14,11.42-14.8-7.63.26-12.54,6-12.54,14.8,0,10.29,4.87,15.71,14.44,16.15-8.84-.82-13.33-6.24-13.33-16.15h0Z"/>
    <polygon class="cls-2" points="183.38 173.18 184.49 173.18 184.49 167.79 183.38 167.79 183.38 173.18 183.38 173.18"/>
    <polygon class="cls-2" points="187.63 167.71 188.74 167.71 188.74 136.62 187.63 136.62 187.63 167.71 187.63 167.71"/>
    <polygon class="cls-2" points="204.17 158.93 205.28 158.93 205.28 154.4 204.17 154.4 204.17 158.93 204.17 158.93"/>
    <polygon class="cls-2" points="204.17 149.25 205.28 149.25 205.28 144.85 204.17 144.85 204.17 149.25 204.17 149.25"/>
    <polygon class="cls-2" points="214.53 167.71 215.64 167.71 215.64 161 214.53 161 214.53 167.71 214.53 167.71"/>
    <polygon class="cls-2" points="183.38 136.54 184.49 136.54 184.49 131.15 183.38 131.15 183.38 136.54 183.38 136.54"/>
    <polygon class="cls-2" points="214.53 136.62 214.53 142.65 215.64 142.65 215.64 136.62 214.53 136.62 214.53 136.62"/>
    <polygon class="cls-3" points="62.36 110.61 62.36 114.87 60.24 114.87 60.24 112.4 58.14 112.4 58.14 121.14 59.89 121.14 59.89 122.93 53.84 122.93 53.84 121.14 55.59 121.14 55.59 112.4 53.49 112.4 53.49 114.87 51.37 114.87 51.37 110.61 62.36 110.61 62.36 110.61"/>
    <polygon class="cls-3" points="63.51 121.14 65.03 121.14 65.03 112.4 63.51 112.4 63.51 110.61 69.32 110.61 69.32 112.4 67.57 112.4 67.57 115.76 72.77 115.76 72.77 112.4 71.02 112.4 71.02 110.61 76.82 110.61 76.82 112.4 75.31 112.4 75.31 121.14 76.82 121.14 76.82 122.93 71.02 122.93 71.02 121.14 72.77 121.14 72.77 117.54 67.57 117.54 67.57 121.14 69.32 121.14 69.32 122.93 63.51 122.93 63.51 121.14 63.51 121.14"/>
    <polygon class="cls-3" points="77.85 121.14 79.36 121.14 79.36 112.4 77.85 112.4 77.85 110.61 88.8 110.61 88.8 114.31 86.68 114.31 86.68 112.4 81.91 112.4 81.91 115.76 83.73 115.76 83.73 114.08 85.67 114.08 85.67 119.11 83.73 119.11 83.73 117.45 81.91 117.45 81.91 121.14 86.68 121.14 86.68 118.9 88.8 118.9 88.8 122.93 77.85 122.93 77.85 121.14 77.85 121.14"/>
    <path class="cls-3" d="M105.59,116.77c0-2.64-1.07-4.63-3.67-4.63s-3.67,2-3.67,4.63,1.07,4.63,3.67,4.63,3.67-2,3.67-4.63h0ZM95.56,116.77c0-3.71,2.29-6.42,6.36-6.42s6.36,2.71,6.36,6.42-2.29,6.42-6.36,6.42-6.36-2.71-6.36-6.42h0Z"/>
    <polygon class="cls-3" points="120.56 110.61 120.56 114.74 118.44 114.74 118.44 112.4 113.66 112.4 113.66 116 115.36 116 115.36 114.36 117.29 114.36 117.29 119.39 115.36 119.39 115.36 117.7 113.66 117.7 113.66 121.14 115.45 121.14 115.45 122.93 109.61 122.93 109.61 121.14 111.12 121.14 111.12 112.4 109.61 112.4 109.61 110.61 120.56 110.61 120.56 110.61"/>
    <polygon class="cls-3" points="132.85 110.61 132.85 114.74 130.73 114.74 130.73 112.4 125.95 112.4 125.95 116 127.65 116 127.65 114.36 129.58 114.36 129.58 119.39 127.65 119.39 127.65 117.7 125.95 117.7 125.95 121.14 127.74 121.14 127.74 122.93 121.9 122.93 121.9 121.14 123.41 121.14 123.41 112.4 121.9 112.4 121.9 110.61 132.85 110.61 132.85 110.61"/>
    <polygon class="cls-3" points="134.47 121.14 135.98 121.14 135.98 112.4 134.47 112.4 134.47 110.61 140.03 110.61 140.03 112.4 138.52 112.4 138.52 121.14 140.03 121.14 140.03 122.93 134.47 122.93 134.47 121.14 134.47 121.14"/>
    <path class="cls-3" d="M153.17,115.17h-2.3c-.02-1.86-1.25-3.03-3.04-3.03-2.71,0-3.5,2.49-3.5,4.93s1.12,4.33,3.69,4.33c1.49,0,2.69-1.11,2.75-2.73h2.45c-.06,3.45-2.91,4.52-5.29,4.52-4.24,0-6.29-2.75-6.29-6.33,0-3.77,1.9-6.52,5.75-6.52,1.44,0,2.64.41,3.45,1.66l.04.04v-1.43h2.3v4.56h0Z"/>
    <polygon class="cls-3" points="154.92 121.14 156.43 121.14 156.43 112.4 154.92 112.4 154.92 110.61 160.49 110.61 160.49 112.4 158.98 112.4 158.98 121.14 160.49 121.14 160.49 122.93 154.92 122.93 154.92 121.14 154.92 121.14"/>
    <path class="cls-3" d="M170.15,117.38l-1.81-4.73-1.84,4.73h3.65ZM161.63,121.14h1.01l4.26-10.53h3.13l4.22,10.53h1.01v1.79h-5.18v-1.79h1.51l-.79-1.98h-5l-.76,1.98h1.51v1.79h-4.94v-1.79h0Z"/>
    <polygon class="cls-3" points="176.13 121.14 177.65 121.14 177.65 112.4 176.13 112.4 176.13 110.61 182.13 110.61 182.13 112.4 180.19 112.4 180.19 121.14 184.15 121.14 184.15 118.6 186.37 118.6 186.37 122.93 176.13 122.93 176.13 121.14 176.13 121.14"/>
    <path class="cls-3" d="M58.97,191.3h4.54l-2.23-6.64h-.06l-2.26,6.64h0ZM50.58,196.86h1.2l6.62-16.59h6.71l6.47,16.59h1.2v3.5h-9.35v-3.5h2.23l-.87-2.24h-7.07l-.87,2.24h2.23v3.5h-8.48v-3.5h0Z"/>
    <polygon class="cls-3" points="101.98 183.77 100.83 183.77 96.65 200.37 90.1 200.37 87.39 184.57 87.33 184.57 84.56 200.37 77.92 200.37 73.88 183.77 72.74 183.77 72.74 180.27 81.67 180.27 81.67 183.77 79.39 183.77 81.58 195.82 81.64 195.82 84.8 180.27 90.91 180.27 93.92 195.82 93.98 195.82 96.2 183.77 93.98 183.77 93.98 180.27 101.98 180.27 101.98 183.77 101.98 183.77"/>
    <path class="cls-3" d="M109.73,191.3h4.54l-2.23-6.64h-.06l-2.26,6.64h0ZM101.34,196.86h1.2l6.62-16.59h6.71l6.47,16.59h1.2v3.5h-9.35v-3.5h2.23l-.87-2.24h-7.07l-.87,2.24h2.23v3.5h-8.48v-3.5h0Z"/>
    <path class="cls-3" d="M132.56,188.87h2.01c1.68,0,3.04-.68,3.04-2.8s-1.65-2.31-3.04-2.31h-2.01v5.1h0ZM124.98,196.86h1.93v-13.09h-1.93v-3.5h10.77c1.96-.03,3.82.12,5.2.92,1.41.8,2.32,2.18,2.32,4.55,0,3.1-2.02,4.7-4.93,4.89v.06c3.97,0,3.79,3.29,4.93,6.18h1.74v3.5h-6.53c-.27-.65-.66-2.31-1.2-3.93-.24-.77-1.02-2.98-1.56-3.53-.39-.43-.93-.49-1.5-.52h-1.65v4.49h2.14v3.5h-9.71v-3.5h0Z"/>
    <path class="cls-3" d="M154.34,196.86h2.59c3.94,0,5.14-3.1,5.14-6.73s-1.08-6.36-4.93-6.36h-2.8v13.09h0ZM146.7,196.86h1.98v-13.09h-1.98v-3.5h6.92c2.05,0,4.96-.12,6.92.18,4.99.83,7.52,4.86,7.52,9.74,0,3.29-1.08,6.55-3.85,8.45-2.74,1.84-5.56,1.72-8.75,1.72h-8.75v-3.5h0Z"/>
    <path class="cls-3" d="M170,193.45h4.96c-.06,2.24,1.17,3.84,3.46,3.84,1.32,0,2.8-.58,2.8-2.15,0-3.66-11.1-1.9-11.1-9.25,0-4.3,3.34-6.05,7.16-6.05,1.38,0,3.97.37,4.51,1.97h.06v-1.54h4.63v6.36h-4.6c.18-2.27-1.26-3.29-3.34-3.29-1.17,0-2.77.46-2.77,1.94,0,3.38,11.1,1.6,11.1,9.03,0,4.79-2.92,6.48-7.31,6.48-1.77,0-4.09-.49-4.87-2.37h-.06v1.94h-4.63v-6.91h0Z"/>
    <polygon class="cls-3" points="200.22 208.69 37.39 208.69 37.39 207.93 200.22 207.93 200.22 208.69 200.22 208.69"/>
    <path class="cls-3" d="M67.74,134.98c-.03.79-.17,1.37-.49,1.95-.72,1.32-2.37,2.12-4.4,2.12-1.67,0-3.08-.5-4.07-1.44-1.02-.96-1.56-2.51-1.56-4.45,0-1.6.38-2.96,1.11-3.97.84-1.16,2.1-1.74,3.77-1.74.97,0,1.84.25,2.4.69.25.21.4.38.64.79v-1.21h2.53v4.08h-2.75c-.05-1.52-.81-2.38-2.08-2.38-1.57,0-2.43,1.39-2.43,3.93,0,2.38.86,3.69,2.42,3.69,1.16,0,1.88-.78,1.94-2.08h2.99Z"/>
    <path class="cls-3" d="M72.25,130.55c-.32.64-.48,1.54-.48,2.78,0,1.62.27,2.58.92,3.26.4.43.92.64,1.56.64.67,0,1.27-.25,1.67-.68.64-.68.91-1.64.91-3.24,0-1.26-.14-2.1-.48-2.76-.38-.79-1.16-1.27-2.03-1.27s-1.67.5-2.07,1.27h0ZM80.01,133.16c0,3.7-2.13,5.88-5.69,5.88s-5.72-2.17-5.72-5.85,2.15-5.74,5.67-5.74,5.74,2.13,5.74,5.7h0Z"/>
    <path class="cls-3" d="M84.3,129.61h-.13c.11,2.61.13,3.45.13,5.42v1.87h1.05v1.87h-4.37v-1.87h1.05v-7.29h-1.05v-1.87h5.5l1.11,4.25c.37,1.47.51,2.12.76,3.72.27-1.6.35-2,.86-3.95l1.05-4.02h5.5v1.87h-1.05v7.29h1.05v1.87h-4.83v-1.87h1.05c.02-3.5.03-4.02.13-7.29h-.13l-2.43,9.16h-2.8l-2.45-9.16h0Z"/>
    <path class="cls-3" d="M100.16,129.61h-.13c.11,2.61.13,3.45.13,5.42v1.87h1.05v1.87h-4.37v-1.87h1.05v-7.29h-1.05v-1.87h5.5l1.11,4.25c.37,1.47.51,2.12.76,3.72.27-1.6.35-2,.86-3.95l1.05-4.02h5.5v1.87h-1.05v7.29h1.05v1.87h-4.83v-1.87h1.05c.02-3.5.03-4.02.13-7.29h-.13l-2.43,9.16h-2.8l-2.45-9.16h0Z"/>
    <path class="cls-3" d="M122.89,135.05c0,2.61-1.67,4-4.79,4s-4.63-1.31-4.63-3.79v-5.65h-.87v-1.87h5.07v1.87h-1.14v5.42c0,.76.1,1.16.35,1.52.27.38.86.63,1.48.63.53,0,.97-.16,1.29-.48.45-.45.6-1.01.6-2.13v-4.96h-1.1v-1.87h4.63v1.87h-.89v5.44h0Z"/>
    <path class="cls-3" d="M129.26,133.25c-.48-.99-.73-1.69-1.21-3.22h-.06c.22,2.99.24,3.5.29,6.88h1.1v1.87h-4.61v-1.87h1.05v-7.29h-1.05v-1.87h5.12l2.3,4.88c.52,1.14.79,1.85,1.32,3.47h.06c-.27-3.26-.3-3.78-.3-6.48h-1.1v-1.87h4.61v1.87h-1.05v9.16h-3.75l-2.72-5.52h0Z"/>
    <polygon class="cls-3" points="143.14 136.9 143.14 138.77 137.72 138.77 137.72 136.9 138.91 136.9 138.91 129.61 137.72 129.61 137.72 127.74 143.14 127.74 143.14 129.61 141.96 129.61 141.96 136.9 143.14 136.9 143.14 136.9"/>
    <polygon class="cls-3" points="150.85 136.9 152.2 136.9 152.2 138.77 146.45 138.77 146.45 136.9 147.8 136.9 147.8 129.61 146.43 129.61 146.43 131.72 144 131.72 144 127.74 154.66 127.74 154.66 131.72 152.23 131.72 152.23 129.61 150.85 129.61 150.85 136.9 150.85 136.9"/>
    <polygon class="cls-3" points="162.91 129.61 161.75 129.61 161.75 127.74 166.52 127.74 166.52 129.61 165.85 129.61 162.47 134.86 162.47 136.9 163.9 136.9 163.9 138.77 157.98 138.77 157.98 136.9 159.42 136.9 159.42 134.86 156 129.61 155.35 129.61 155.35 127.74 160.69 127.74 160.69 129.61 159.43 129.61 161.18 132.57 162.91 129.61 162.91 129.61"/>
    <polygon class="cls-3" points="170.16 127.74 170.16 130.4 169.44 132.65 167.44 132.65 168.39 130.4 167.41 130.4 167.41 127.74 170.16 127.74 170.16 127.74"/>
    <path class="cls-3" d="M173.99,134.98c.03,1.45.54,2.08,1.72,2.08,1.02,0,1.64-.45,1.64-1.16,0-.58-.22-.78-1.35-1.21l-2.37-.91c-1.51-.58-2.19-1.49-2.19-2.93,0-2.17,1.35-3.41,3.69-3.41,1.38,0,2.18.4,2.62,1.27v-.99h2.43v3.49h-2.43c0-1.24-.54-1.78-1.8-1.78-.97,0-1.51.36-1.51,1.02,0,.55.22.73,1.43,1.17l1.88.68c1.99.74,2.69,1.57,2.69,3.26,0,2.23-1.38,3.47-3.88,3.47-1.46,0-2.26-.4-2.73-1.34v1.06h-2.43v-3.78h2.61Z"/>
    <polygon class="cls-3" points="69.48 252 67.88 252 62.04 275.18 52.88 275.18 49.1 253.12 49.02 253.12 45.15 275.18 35.87 275.18 30.24 252 28.64 252 28.64 247.11 41.12 247.11 41.12 252 37.93 252 40.99 268.83 41.08 268.83 45.49 247.11 54.02 247.11 58.22 268.83 58.3 268.83 61.41 252 58.3 252 58.3 247.11 69.48 247.11 69.48 252 69.48 252"/>
    <polygon class="cls-3" points="71.16 270.29 74.27 270.29 74.27 252 71.16 252 71.16 247.11 85.32 247.11 85.32 252 82.17 252 82.17 270.29 85.32 270.29 85.32 275.18 71.16 275.18 71.16 270.29 71.16 270.29"/>
    <polygon class="cls-3" points="87.25 270.29 89.94 270.29 89.94 252 87.25 252 87.25 247.11 100.69 247.11 109.43 268.18 109.52 268.18 109.52 252 106.58 252 106.58 247.11 118.25 247.11 118.25 252 115.99 252 115.99 275.18 106.16 275.18 96.49 252.99 96.41 252.99 96.41 270.29 99.43 270.29 99.43 275.18 87.25 275.18 87.25 270.29 87.25 270.29"/>
    <polygon class="cls-3" points="119.94 270.29 122.63 270.29 122.63 252 119.94 252 119.94 247.11 133.38 247.11 142.12 268.18 142.2 268.18 142.2 252 139.26 252 139.26 247.11 150.94 247.11 150.94 252 148.67 252 148.67 275.18 138.84 275.18 129.18 252.99 129.1 252.99 129.1 270.29 132.12 270.29 132.12 275.18 119.94 275.18 119.94 270.29 119.94 270.29"/>
    <polygon class="cls-3" points="152.62 270.29 155.31 270.29 155.31 252 152.62 252 152.62 247.11 178.38 247.11 178.38 255.87 172.33 255.87 172.33 252 163.21 252 163.21 258.61 165.77 258.61 165.77 255.78 170.56 255.78 170.56 266.17 165.77 266.17 165.77 263.25 163.21 263.25 163.21 270.29 172.33 270.29 172.33 266 178.38 266 178.38 275.18 152.62 275.18 152.62 270.29 152.62 270.29"/>
    <path class="cls-3" d="M191.57,259.13h2.82c2.35,0,4.24-.94,4.24-3.91s-2.31-3.22-4.24-3.22h-2.82v7.13h0ZM180.98,270.29h2.69v-18.28h-2.69v-4.89h15.04c2.73-.04,5.34.17,7.27,1.29,1.98,1.12,3.24,3.05,3.24,6.35,0,4.33-2.81,6.57-6.89,6.82v.09c5.55,0,5.29,4.59,6.89,8.63h2.44v4.89h-9.12c-.38-.9-.93-3.22-1.68-5.49-.34-1.07-1.43-4.16-2.18-4.94-.55-.6-1.3-.69-2.1-.73h-2.31v6.27h2.98v4.89h-13.57v-4.89h0Z"/>
    <path class="cls-2" d="M51.16,231.72c-1.36,0-2.56-.3-3.59-.9-1.03-.6-1.84-1.44-2.42-2.5-.58-1.07-.88-2.3-.88-3.71s.29-2.64.88-3.7c.58-1.06,1.39-1.88,2.42-2.48,1.03-.6,2.23-.89,3.59-.89,1.15,0,2.19.24,3.12.71.92.48,1.71,1.16,2.37,2.06l-2.89,1.75c-.34-.44-.72-.79-1.15-1.04-.43-.25-.92-.38-1.49-.38-.93,0-1.68.36-2.26,1.07-.58.72-.87,1.68-.87,2.9s.29,2.19.87,2.92c.58.73,1.33,1.09,2.26,1.09.58,0,1.09-.14,1.53-.43.45-.29.82-.63,1.12-1.01l2.87,1.75c-.64.91-1.43,1.6-2.37,2.08-.94.48-1.98.71-3.12.71h0Z"/>
    <path class="cls-2" d="M61.92,228.6h2.48c.45,0,.81-.13,1.08-.38.28-.25.41-.57.41-.95,0-.4-.14-.73-.41-.98-.28-.25-.64-.38-1.08-.38h-2.48v2.69h0ZM61.92,223.22h2.14c.43,0,.77-.12,1.02-.35.25-.23.37-.55.37-.96s-.13-.7-.39-.92c-.26-.23-.61-.34-1.04-.34h-2.1v2.57h0ZM69.51,227.7c0,.74-.2,1.39-.61,1.96-.41.57-.98,1.01-1.72,1.33-.74.32-1.61.47-2.61.47h-6.06v-13.66h5.8c1.44,0,2.58.32,3.41.95.83.64,1.25,1.5,1.25,2.6,0,.76-.19,1.41-.56,1.95-.37.54-.84.94-1.41,1.19.76.24,1.37.64,1.82,1.21.45.56.68,1.23.68,1.99h0Z"/>
    <path class="cls-2" d="M77.36,228.6c.73,0,1.3-.22,1.7-.66.4-.44.6-1.07.6-1.89v-8.26h3.66v8.24c0,1.81-.52,3.21-1.55,4.2-1.04.99-2.5,1.49-4.41,1.49s-3.37-.5-4.41-1.49c-1.04-.99-1.55-2.39-1.55-4.2v-8.24h3.66v8.26c0,.82.2,1.45.6,1.89.4.44.97.66,1.7.66h0Z"/>
    <path class="cls-2" d="M90.73,231.72c-1.09,0-2.13-.19-3.13-.57-1-.38-1.86-.93-2.6-1.64l1.77-2.27c.52.48,1.11.86,1.77,1.13.66.28,1.38.41,2.16.41.52,0,.94-.09,1.24-.28.3-.19.45-.47.45-.84s-.18-.65-.53-.87c-.35-.22-.98-.45-1.87-.69l-.83-.22c-1.21-.32-2.12-.81-2.75-1.48-.63-.66-.94-1.5-.94-2.52,0-.87.22-1.63.67-2.29.44-.66,1.06-1.16,1.85-1.52.79-.35,1.7-.53,2.73-.53s2,.19,2.93.57c.93.38,1.76.9,2.48,1.56l-1.83,2.35c-.47-.41-1.03-.78-1.66-1.08-.64-.31-1.27-.46-1.9-.46-.52,0-.93.09-1.21.27-.28.18-.42.45-.42.79,0,.32.15.6.44.83.29.23.8.45,1.52.65l1,.28c1.44.4,2.46.95,3.06,1.65.6.7.89,1.51.89,2.43,0,.87-.22,1.63-.66,2.28-.44.65-1.06,1.16-1.86,1.52-.8.36-1.73.54-2.79.54h0Z"/>
    <polygon class="cls-2" points="105.91 231.45 105.91 220.81 101.94 220.81 101.94 217.79 113.54 217.79 113.54 220.81 109.57 220.81 109.57 231.45 105.91 231.45 105.91 231.45"/>
    <path class="cls-2" d="M118.67,228.94c.6,0,1.08-.24,1.45-.71.36-.48.54-1.11.54-1.9s-.18-1.42-.54-1.89c-.36-.47-.84-.7-1.45-.7s-1.08.23-1.45.7c-.36.47-.54,1.1-.54,1.89s.18,1.42.54,1.9c.36.48.84.71,1.45.71h0ZM118.67,231.72c-1.08,0-2.02-.23-2.84-.69-.82-.46-1.46-1.1-1.93-1.9-.47-.8-.7-1.73-.7-2.79s.23-1.99.7-2.79c.47-.8,1.11-1.43,1.93-1.89.82-.46,1.77-.68,2.84-.68s2.02.23,2.84.68c.82.46,1.46,1.09,1.93,1.89.47.8.7,1.74.7,2.79s-.23,1.99-.7,2.79c-.47.8-1.11,1.44-1.93,1.9-.82.46-1.77.69-2.84.69h0Z"/>
    <path class="cls-2" d="M131.26,228.94c.6,0,1.08-.24,1.45-.71.36-.48.54-1.11.54-1.9s-.18-1.42-.54-1.9c-.36-.48-.84-.71-1.45-.71s-1.07.24-1.43.71c-.36.48-.54,1.11-.54,1.9s.18,1.42.54,1.9c.36.48.84.71,1.43.71h0ZM132.18,231.72c-.59,0-1.13-.13-1.61-.38-.49-.25-.89-.6-1.22-1.04v4.88h-3.42v-13.94h3.13l.18,1.35c.32-.48.74-.87,1.27-1.17.53-.29,1.14-.44,1.84-.44.85,0,1.61.23,2.26.68.66.46,1.17,1.09,1.55,1.89.38.8.57,1.74.57,2.79s-.19,1.99-.58,2.8c-.39.81-.92,1.44-1.61,1.9-.69.46-1.47.68-2.35.68h0Z"/>
    <path class="cls-2" d="M147.05,224.04h1.77c.56,0,1.01-.15,1.34-.45.33-.3.49-.7.49-1.2s-.16-.89-.49-1.2c-.33-.3-.77-.45-1.34-.45h-1.77v3.3h0ZM143.51,231.45v-13.66h5.66c1.57,0,2.82.41,3.74,1.24.92.82,1.38,1.95,1.38,3.36,0,.92-.21,1.72-.62,2.4-.41.68-.99,1.2-1.74,1.57-.75.37-1.64.55-2.67.55h-2.2v4.54h-3.54Z"/>
    <path class="cls-2" d="M156.04,231.45v-10.23h3.42v10.23h-3.42ZM157.75,220.24c-.59,0-1.07-.18-1.45-.53-.37-.35-.56-.79-.56-1.32s.19-.98.56-1.33c.37-.35.86-.52,1.45-.52s1.07.17,1.45.52c.37.35.56.79.56,1.33s-.19.96-.56,1.32c-.37.36-.86.53-1.45.53h0Z"/>
    <path class="cls-2" d="M166.54,231.72c-1.02,0-1.93-.22-2.72-.67-.79-.45-1.42-1.07-1.88-1.88-.46-.8-.69-1.74-.69-2.81s.23-2.01.69-2.81c.46-.8,1.08-1.43,1.88-1.88.79-.45,1.7-.67,2.72-.67.9,0,1.7.17,2.38.51.68.34,1.28.89,1.81,1.64l-2.26,1.69c-.18-.28-.42-.51-.72-.69-.29-.18-.61-.27-.95-.27-.59,0-1.08.22-1.48.67-.39.45-.59,1.05-.59,1.82s.2,1.37.59,1.82.89.67,1.48.67c.34,0,.66-.09.95-.27.29-.18.53-.41.72-.69l2.26,1.69c-.52.75-1.13,1.3-1.81,1.64-.68.34-1.48.51-2.38.51h0Z"/>
    <polygon class="cls-2" points="178.77 231.45 175.68 226.35 175.68 231.45 172.26 231.45 172.26 216.79 175.68 216.79 175.68 225.35 178.87 221.23 182.94 221.23 179.16 225.73 182.88 231.45 178.77 231.45 178.77 231.45"/>
    <path class="cls-2" d="M187.68,231.72c-.87,0-1.68-.14-2.43-.42-.75-.28-1.43-.68-2.04-1.21l1.45-1.97c.46.37.95.68,1.49.91.53.23,1.05.35,1.56.35.34,0,.61-.06.81-.18.2-.12.31-.3.31-.54,0-.25-.11-.46-.34-.61-.23-.15-.64-.3-1.23-.45l-.94-.24c-1.87-.51-2.81-1.53-2.81-3.07,0-.68.18-1.27.55-1.77.37-.5.87-.88,1.51-1.15.64-.27,1.39-.4,2.24-.4s1.63.13,2.37.4c.74.27,1.42.66,2.03,1.17l-1.49,2.01c-.46-.37-.94-.68-1.45-.9-.51-.23-.99-.34-1.44-.34-.72,0-1.08.24-1.08.72,0,.22.11.39.32.52.22.13.52.25.91.36l1.28.36c.96.27,1.66.67,2.12,1.21.46.54.69,1.17.69,1.91,0,.67-.18,1.26-.55,1.76-.37.5-.88.89-1.54,1.17-.66.27-1.43.41-2.31.41h0Z"/>
    <g class="cls-10">
      <polygon class="cls-11" points="206.74 17.72 30.86 17.72 30.86 90.41 206.74 90.41 206.74 17.72 206.74 17.72"/>
      <path class="cls-3" d="M136.76,95.45c.22.15.46.22.7.22.48,0,.95-.29,1.21-.82l7.15-14.45c-2.23.42-1.74,2.71-3.74,3.32-.1-.46-.36-.76-.58-1.11l-5.24,10.61c-.39.78-.16,1.78.51,2.23h0Z"/>
      <path class="cls-3" d="M150.25,64.9c.01,1.04-.38,1.67-.5,2.58,1.24.05.92-.77,1.81,0,.17,1.57-.79,1.98-1.36,2.78.4-1.49-.7-1.45-1.35-1.85.02-.33.05-.61.08-.85l-5.91,11.95c.85-.8,1.67-1.63,2.21-2.74.95,0,1.33.6,1.87,1.02l18.48-37.39c.02-.49.21-.82.51-1.02l2.97-6.02c-.1.1-.2.19-.33.26-.84-.82.11-1.43.9-1.86-.02.22-.04.42-.08.62l2.82-5.72h-.48v-.93h.9v.09l10.12-20.48c-2.11.15-.31-1.77.19-.38l2.54-5.13c-.83-.5-1.66-.99-2.5-1.47l-32.91,66.56h0Z"/>
      <path class="cls-3" d="M130.85,92.21c.16.07.32.1.48.1.57,0,1.11-.41,1.31-1.07l12.46-39.98c-.1,0-.19,0-.32-.02-.98-1.7-.76-2.31.9-3.25-.16.57-.08.9.08,1.15l1.08-3.45c-.94.79-2.03,1.31-3.39,1.32l-2.96,9.51c.43.5.87.99,1.13,1.66-.86.81-1.26.51-1.66.03l-5.04,16.16c.12-.11.25-.24.37-.42v.92c.27.03.54.07.46.47-.42-.08-.78-.1-1.1-.08l-4.62,14.84c-.26.85.11,1.78.83,2.09h0Z"/>
      <path class="cls-3" d="M148.41,35c-.03-.59-.58-.64-.46-1.39h.91c.51.67.49,1.13-.45,1.39h0ZM157.45,5.3c-.05,1.27-.85,2.2-1.85,2.74l-10.65,34.18c1.11.35,1.69,1.24,2.32,2.08l11.05-35.45c-.29-.42-.45-.97-.43-1.71.33.05.61.15.88.25l.8-2.56c-.72-.01-1.3.12-1.68.46-.72-.7-.33-1.9.46-2.32.12.86,1.03.92,1.29,1.64l4.74-15.2c-.88-.34-1.77-.66-2.67-.98l-5.13,16.46c.14.29.49.35.87.39h0Z"/>
      <path class="cls-3" d="M118.17,42.22h-.9v-.93h.9v.93h0ZM119.44-18.9c-.21,0-.42,0-.63,0-.73,0-1.45.02-2.17.03V52.43c.92-.48,1.85-.83,2.8-.76v-7.12c-1.42.39-1.4-.69-1.27-1.87,1.13-.3.92.78,1.27,1.28v-1.73c-.12-.05-.25-.17-.37-.48.55-.1.28-.52,0-.93.12-.08.24-.16.37-.22V-18.9h0Z"/>
    </g>
    <path class="cls-3" d="M117.59,73.12c2.74-.37.3,2.13,0,0h0ZM119.44,65.31v-4.39c-.72.71-1.65,1.2-2.8,1.48v9.59c.87-.46,2.21-.47,2.42-.08-.97.21-1.59.79-2.42,1.15v3.89c1,.05,1.88-.17,2.8-.68v-9.38c-.12.13-.25.25-.37.38-.55-.03-.52-.68-.72-1.08-.14-.06-.25-.15-.29-.29l-.34-.02.33-.11v-.08c.27-.03.54-.07.45-.47h.91l.04.09h0Z"/>
    <g class="cls-7">
      <path class="cls-3" d="M116.65,87.95c0,.9.63,1.63,1.4,1.63s1.4-.73,1.4-1.63v-9.24c-1.03.21-1.88.43-2.8.55v8.69h0Z"/>
      <path class="cls-3" d="M133.48,21.71c.96-.34,1.35.69,2.77.08.02.12,0,.21,0,.32l2.14-14.21c-.22-.2-.44-.41-.64-.64-.41-1.87.77-3.35,1.48-4.92l.4-2.66c-.02-.1-.04-.2-.07-.31-.38-.09-.43.19-.45.46-.53-.07-.81.11-.9.47h-.45c-.48.14-.79.04-1.03-.12l-3.25,21.53h0Z"/>
      <path class="cls-3" d="M178.76,71.68l-31.87,31.23c-.59.58-.67,1.61-.17,2.3.28.38.67.58,1.07.58.32,0,.63-.13.9-.38l35-34.3c-.12-.63-.19-1.33-.94-1.32-1.71.25-1.57,2.41-3.17,2.79-.46-.11-.35-.81-.82-.9h0Z"/>
      <path class="cls-3" d="M95.98-11.15c2.17-1.29,1.09,1.52,0,0h0ZM99.14,14.83c-.59-.61-.6-1.72.45-1.86h.45c.84.82-.11,1.44-.9,1.86h0ZM98.04,10.22c.5-.18,1.46.11,2.01-.02v.46c-.96-.17-.99.61-1.86.54l9.91,65.65c.1-.15.27-.26.57-.3.2.88.98,1.17.9,2.32-.28.86-1.37,1.83-.29,2.23.25-.36.55-.68,1.27-.56.11.77.64,1.12,1.17,1.47l-1.69-11.21h-.57v-.93h.43l-.58-3.85c-.5,0-.9-.66-1.2-1.26v-.46c.57-.15.81.04.99.28l-.66-4.38c-.42.05-.86-.12-.78-.54.23-.03.43-.07.46-.3h-.32c-.01-.46.12-.84.35-1.15L98.23-7.28c-.52.96-1.28,1.67-2.26,2.17-.29-1.85.58-2.51,1.36-3.25h.74l-1.3-8.64c-.92.16-1.84.33-2.76.51l4.03,26.72h0Z"/>
      <path class="cls-3" d="M202.58,13.12c.21.24.16.57-.39.99-.04-.13-.07-.22-.11-.31l-28.75,40.01c-.06.37-.22.65-.47.65l-18.48,25.71c.66.77.95,1.92.79,3.53-1.36-.1-2.64.23-3.82.68l-9.43,13.12c-.5.69-.42,1.72.17,2.3.26.26.58.38.89.38.4,0,.8-.2,1.07-.58l34.1-47.46c0-.28.01-.59.06-.92.2.01.38.04.55.09l26.55-36.96c-.74-.66-1.49-1.31-2.24-1.96l-.51.71h0Z"/>
      <path class="cls-3" d="M127.61,60.98c-.02-.13,0-.24-.01-.36l-4.19,27.74c-.14.89.37,1.73,1.13,1.89.08.02.16.03.24.03.66,0,1.26-.56,1.37-1.35l5.88-38.97c-.06,0-.11,0-.17,0,0-.45-.56-.36-.9-.47.49-3.09-.68-4.13,1.77-4.18l.04-.25v-.21h.03l3.26-21.61c-.56,1.21-2.21,1.29-3,2.27-.02-.18-.07-.33-.11-.49l-1.72,11.39c.54.2.81.67,1.78.44-.54.9-1.27,1.36-2.09,1.62l-2.04,13.51s.07,0,.11-.01c-.54,1.88-.14,2.29,1.36,1.39v1.4c-.02.28-.07.55-.45.46-.52-.16-.98-.4-1.4-.67l-.59,3.91h.64c-.02.22-.02.46-.02.71.67.7.45,2.03-.93,1.82h0Z"/>
      <path class="cls-3" d="M210.95,40.14c.1-.03.2-.05.28-.04.14,1.08-.07,1.78-.45,2.33h-.45c-.77-.08-1-.38-.94-.75l-9.64,9.45c-.06.19-.14.37-.26.58h-.33l-12.79,12.53h.46v1.39c-.78.17-1.1-.15-1.52-.35l-2.79,2.74c.7-.23,1.47-.55,2.05-.99.5.79.73,1.67.74,2.52l22.64-22.19c-.11-.08-.21-.18-.32-.29.31-.08.64-.2.99-.36l8.12-7.96c-.51-.28-1.2-.38-.97-1.42.25-.67.7-1.13,1.36-1.39.12.65.99.52,1.35.92-.01.07-.02.15-.04.22l4.19-4.11c-.62-.81-1.25-1.61-1.89-2.41l-9.78,9.59h0Z"/>
      <path class="cls-3" d="M213.99,66.73c.16.38.28.8.41,1.21-1.49.33-1.52,2.15-3.17,2.32-.14-.81,0-1.34.2-1.8l-60.45,40.76c-.67.45-.9,1.45-.51,2.23.26.52.73.81,1.21.81.24,0,.48-.07.7-.22l55.19-37.21c-.62-.41-1.45-.6-1.31-1.79.8-.41,1.32-1.12,2.26-1.4-.44,1.01-.23,1.94-.21,2.69l28.32-19.1c-.47-.94-.95-1.87-1.45-2.8l-21.19,14.29h0Z"/>
      <path class="cls-3" d="M153.24,118.35c.21.66.74,1.08,1.32,1.08.16,0,.32-.03.48-.1l91.3-38.81s.05-.03.08-.05c-.29-1.03-.58-2.05-.89-3.06-.05.01-.1.02-.15.04l-91.3,38.81c-.73.31-1.1,1.24-.83,2.09h0Z"/>
      <path class="cls-3" d="M181.85,69.8c.12-.51-.09-.68-.34-.81l-1.06,1.03c.37-.17.76-.33,1.39-.23h0Z"/>
      <path class="cls-3" d="M97.42,94.85c.26.52.73.82,1.21.82.24,0,.48-.07.7-.22.67-.45.9-1.45.51-2.23L53.27-.97c-.83.49-1.66.99-2.48,1.5l46.63,94.32h0Z"/>
      <path class="cls-3" d="M92.01,99.62c.28.38.67.58,1.07.58.32,0,.63-.12.9-.38.59-.58.67-1.61.17-2.3L33.59,13.23c-.75.65-1.49,1.31-2.23,1.98l60.65,84.41h0Z"/>
      <path class="cls-3" d="M103.44,91.24c.21.66.74,1.07,1.32,1.07.16,0,.32-.03.47-.1.72-.31,1.1-1.24.84-2.09L74.54-11.05c-.89.33-1.78.66-2.66,1.01l31.56,101.28h0Z"/>
      <path class="cls-3" d="M112.68,88.37l-.71-4.72s-.06.08-.06.14h-.45c-.45-1.42-1.21.53-1.81.46-.49-1.18,1.95-1.62.46-2.32-.28.25-.69.62-1.09.94l.92,6.06c.12.79.71,1.35,1.37,1.35.08,0,.16,0,.25-.03.76-.16,1.27-1,1.13-1.89h0Z"/>
      <path class="cls-3" d="M31.5,50.63c.55-.08,1.18-.08,1.89,0,.3.93.22,1.46-.08,1.77l54.09,53c.26.26.58.38.9.38.4,0,.8-.2,1.07-.58.49-.69.42-1.72-.17-2.3L19.39,34.51c-.76-.16-1.4-.44-1.86-.9v-.92l-1.31-1.28c-.63.8-1.26,1.61-1.88,2.42l17.16,16.81h0Z"/>
      <path class="cls-3" d="M83.72,112.05c.22.15.46.22.7.22.48,0,.95-.29,1.21-.82.39-.78.16-1.78-.51-2.23L2.04,53.21c-.49.93-.96,1.87-1.43,2.81l83.11,56.04h0Z"/>
      <path class="cls-4" d="M206.74,71.68h-8.58l-3.96,1.66v-26.52l-.57-.48-.76-1.66-5.37-5.23-4.4-.16-4.76.79-5.29,6.02v1.82h-.62v25.73h-2.64v-9.34h-3.44v-27.4h-4.14l-10.04,2.45-.97-1.58v-1.9l-4.58-.48-10.13,3.25v34.92l-5.55.4v-1.19h-3.96v2.3h-2.38l-.79-.79h-2.2v-31.04l-.88-.79v-4.83l-1.41-.63v-1.98l-.71-.48v-1.74l-1.06-.55v-1.74l-1.11-.55v-2.14l-.74-.4v-5.62h-1.32v5.62l-1.23.79-1.03,1.11v.87l-.73.48v1.43h-.8v2.53l-.97.32v2.22l-.7.63v4.83l-.53,1.19v13.86h-4.05v-1.27h-1.23v-1.19h-1.32v-1.42h-1.32v-1.82l-2.37-.79-5.65-.39-4.84,1.35v2.53h-1.06v1.5h-1.06v1.66h-.79v13.78l-4.46.63v-35.08l-17.38-1.66v-2.37h-2.24v-2.85h-3.04v2.85h-.88v18.37h-1.23v18.37h-2.46v-3.48h-3.92v-2.06h-11.32v-1.82h-2.55v-1.74h-3.85c-.21.5-.42,1-.62,1.5v35.51h176.01v-26.08h0Z"/>
    </g>
    <path class="cls-3" d="M64.72,80.65c0-7.45,4.29-11.38,12.47-11.38,7.74,0,12.08,3.48,12.08,9.77,0,2.92-.89,5.19-2.81,7.15q-10.8,11.03-12.23,11.84c.35-.05.59-.1.69-.1l1.08.1h6.26v-4.28h7.49v9.97h-25.04v-7.5c.49-.45,2.61-2.42,6.31-5.84,2.47-2.32,5.62-5.59,6.9-7.25,1.43-1.81,1.92-2.92,1.92-4.38,0-2.01-1.23-3.37-3.06-3.37-2.07,0-3.06,1.66-3.16,5.29h-8.92Z"/>
    <path class="cls-6" d="M64.72,80.65c0-7.45,4.29-11.38,12.47-11.38,7.74,0,12.08,3.48,12.08,9.77,0,2.92-.89,5.19-2.81,7.15q-10.8,11.03-12.23,11.84c.35-.05.59-.1.69-.1l1.08.1h6.26v-4.28h7.49v9.97h-25.04v-7.5c.49-.45,2.61-2.42,6.31-5.84,2.47-2.32,5.62-5.59,6.9-7.25,1.43-1.81,1.92-2.92,1.92-4.38,0-2.01-1.23-3.37-3.06-3.37-2.07,0-3.06,1.66-3.16,5.29h-8.92Z"/>
    <path class="cls-3" d="M101.4,88.26c0,6.95,1.08,10.12,3.4,10.12,1.33,0,2.17-.65,2.76-2.22.64-1.71,1.04-5.14,1.04-9.52,0-8.21-.94-11.33-3.45-11.33s-3.75,3.83-3.75,12.94h0ZM116.04,76.57c1.13,2.67,1.63,5.39,1.63,9.52,0,7.15-1.28,11.58-4.19,14.91-2.17,2.42-4.93,3.58-8.48,3.58-4.34,0-7.39-1.56-9.52-4.79-2.27-3.42-3.15-7.25-3.15-13.35,0-11.03,4.49-17.18,12.47-17.18,5.42,0,9.02,2.37,11.24,7.3h0Z"/>
    <path class="cls-6" d="M101.4,88.26c0,6.95,1.08,10.12,3.4,10.12,1.33,0,2.17-.65,2.76-2.22.64-1.71,1.04-5.14,1.04-9.52,0-8.21-.94-11.33-3.45-11.33s-3.75,3.83-3.75,12.94h0ZM116.04,76.57c1.13,2.67,1.63,5.39,1.63,9.52,0,7.15-1.28,11.58-4.19,14.91-2.17,2.42-4.93,3.58-8.48,3.58-4.34,0-7.39-1.56-9.52-4.79-2.27-3.42-3.15-7.25-3.15-13.35,0-11.03,4.49-17.18,12.47-17.18,5.42,0,9.02,2.37,11.24,7.3h0Z"/>
    <path class="cls-3" d="M119.93,80.65c0-7.45,4.29-11.38,12.47-11.38,7.74,0,12.08,3.48,12.08,9.77,0,2.92-.89,5.19-2.81,7.15q-10.8,11.03-12.23,11.84c.35-.05.59-.1.69-.1l1.08.1h6.26v-4.28h7.49v9.97h-25.04v-7.5c.49-.45,2.61-2.42,6.31-5.84,2.47-2.32,5.62-5.59,6.9-7.25,1.43-1.81,1.92-2.92,1.92-4.38,0-2.01-1.23-3.37-3.06-3.37-2.07,0-3.06,1.66-3.15,5.29h-8.92Z"/>
    <path class="cls-6" d="M119.93,80.65c0-7.45,4.29-11.38,12.47-11.38,7.74,0,12.08,3.48,12.08,9.77,0,2.92-.89,5.19-2.81,7.15q-10.8,11.03-12.23,11.84c.35-.05.59-.1.69-.1l1.08.1h6.26v-4.28h7.49v9.97h-25.04v-7.5c.49-.45,2.61-2.42,6.31-5.84,2.47-2.32,5.62-5.59,6.9-7.25,1.43-1.81,1.92-2.92,1.92-4.38,0-2.01-1.23-3.37-3.06-3.37-2.07,0-3.06,1.66-3.15,5.29h-8.92Z"/>
    <path class="cls-3" d="M161.74,89.67v-12.29l-7.89,12.29h7.89ZM170.61,98.03h2.71v5.69h-15.83v-5.69h4.24v-2.77h-14.49v-7.2l12.27-17.93h11.09v19.54h2.71v5.59h-2.71v2.77h0Z"/>
    <path class="cls-6" d="M161.74,89.67v-12.29l-7.89,12.29h7.89ZM170.61,98.03h2.71v5.69h-15.83v-5.69h4.24v-2.77h-14.49v-7.2l12.27-17.93h11.09v19.54h2.71v5.59h-2.71v2.77h0Z"/>
    <polygon class="cls-3" points="49.19 93.76 39.58 100.89 43.25 89.34 33.64 82.21 45.52 82.21 49.19 70.66 52.87 82.21 64.75 82.21 55.14 89.34 58.81 100.89 49.19 93.76 49.19 93.76"/>
    <path class="cls-8" d="M49.19,67.07l-2.07,6.5-2.4,7.53h-14.44l5.41,4.02,6.27,4.65-2.4,7.53-2.07,6.5,5.41-4.02,6.27-4.65,6.27,4.65,5.41,4.02-2.07-6.5-2.4-7.53,6.27-4.65,5.41-4.02h-14.44l-2.4-7.53-2.07-6.5h0ZM49.19,74.25l2.88,9.07h9.33l-7.55,5.6,2.88,9.07-7.55-5.6-7.55,5.6,2.88-9.07-7.55-5.6h9.33l2.88-9.07"/>
    <polygon class="cls-3" points="188.41 93.76 178.8 100.89 182.47 89.34 172.85 82.21 184.74 82.21 188.41 70.66 192.08 82.21 203.97 82.21 194.35 89.34 198.02 100.89 188.41 93.76 188.41 93.76"/>
    <path class="cls-8" d="M188.41,67.07l-2.07,6.5-2.39,7.53h-14.44l5.41,4.02,6.27,4.65-2.39,7.53-2.07,6.5,5.41-4.02,6.27-4.65,6.27,4.65,5.41,4.02-2.07-6.5-2.39-7.53,6.27-4.65,5.41-4.02h-14.44l-2.39-7.53-2.07-6.5h0ZM188.41,74.25l2.88,9.07h9.33l-7.55,5.6,2.88,9.07-7.55-5.6-7.55,5.6,2.88-9.07-7.55-5.6h9.33l2.88-9.07"/>
    <path class="cls-3" d="M64.72,80.65c0-7.45,4.29-11.38,12.47-11.38,7.74,0,12.08,3.48,12.08,9.77,0,2.92-.89,5.19-2.81,7.15q-10.8,11.03-12.23,11.84c.35-.05.59-.1.69-.1l1.08.1h6.26v-4.28h7.49v9.97h-25.04v-7.5c.49-.45,2.61-2.42,6.31-5.84,2.47-2.32,5.62-5.59,6.9-7.25,1.43-1.81,1.92-2.92,1.92-4.38,0-2.01-1.23-3.37-3.06-3.37-2.07,0-3.06,1.66-3.16,5.29h-8.92Z"/>
    <path class="cls-3" d="M101.4,88.26c0,6.95,1.08,10.12,3.4,10.12,1.33,0,2.17-.65,2.76-2.22.64-1.71,1.04-5.14,1.04-9.52,0-8.21-.94-11.33-3.45-11.33s-3.75,3.83-3.75,12.94h0ZM116.04,76.57c1.13,2.67,1.63,5.39,1.63,9.52,0,7.15-1.28,11.58-4.19,14.91-2.17,2.42-4.93,3.58-8.48,3.58-4.34,0-7.39-1.56-9.52-4.79-2.27-3.42-3.15-7.25-3.15-13.35,0-11.03,4.49-17.18,12.47-17.18,5.42,0,9.02,2.37,11.24,7.3h0Z"/>
    <path class="cls-3" d="M119.93,80.65c0-7.45,4.29-11.38,12.47-11.38,7.74,0,12.08,3.48,12.08,9.77,0,2.92-.89,5.19-2.81,7.15q-10.8,11.03-12.23,11.84c.35-.05.59-.1.69-.1l1.08.1h6.26v-4.28h7.49v9.97h-25.04v-7.5c.49-.45,2.61-2.42,6.31-5.84,2.47-2.32,5.62-5.59,6.9-7.25,1.43-1.81,1.92-2.92,1.92-4.38,0-2.01-1.23-3.37-3.06-3.37-2.07,0-3.06,1.66-3.15,5.29h-8.92Z"/>
    <path class="cls-3" d="M161.74,89.67v-12.29l-7.89,12.29h7.89ZM170.61,98.03h2.71v5.69h-15.83v-5.69h4.24v-2.77h-14.49v-7.2l12.27-17.93h11.09v19.54h2.71v5.59h-2.71v2.77h0Z"/>
  </g>
</svg>